<?xml version="1.0" encoding="UTF-8"?>
<svg id="Layer_1" data-name="Layer 1" xmlns="http://www.w3.org/2000/svg" viewBox="0 0 311 279">
  <defs>
    <style>
      .cls-1 {
        fill: #fff;
        stroke-width: 0px;
      }
    </style>
  </defs>
  <path class="cls-1" d="m268.79,16.8H45.1c-6.93,0-13.24,2.84-17.81,7.41-4.57,4.58-7.41,10.88-7.41,17.81v137.51c0,6.93,2.84,13.24,7.41,17.81,4.57,4.58,10.88,7.41,17.81,7.41h156.39c1.6,0,3.05.66,4.1,1.71l43.88,43.88v-39.84c0-3.18,2.58-5.76,5.76-5.76h13.56c6.93,0,13.24-2.84,17.81-7.41,4.58-4.57,7.41-10.88,7.41-17.81V42.03c0-6.93-2.84-13.24-7.41-17.81-4.58-4.57-10.88-7.41-17.81-7.41h0ZM45.1,5.28h223.69c10.11,0,19.3,4.13,25.96,10.79,6.66,6.66,10.79,15.85,10.79,25.96v137.51c0,10.11-4.13,19.3-10.79,25.96-6.66,6.66-15.85,10.79-25.96,10.79h-7.8v47.98h0c0,1.47-.56,2.95-1.69,4.07-2.25,2.25-5.9,2.25-8.15,0h0s-52.05-52.06-52.05-52.06H45.1c-10.11,0-19.3-4.13-25.96-10.79-6.66-6.66-10.79-15.85-10.79-25.96V42.03c0-10.11,4.13-19.3,10.79-25.96,6.66-6.66,15.85-10.79,25.96-10.79Z"/>
  <rect class="cls-1" x="19.15" y="16.07" width="275.6" height="189.42" rx="16.84" ry="16.84"/>
  <polygon class="cls-1" points="195 196 255 264 264 196 195 196"/>
</svg>