<?xml version="1.0" encoding="UTF-8"?>
<svg id="Layer_1" data-name="Layer 1" xmlns="http://www.w3.org/2000/svg" viewBox="0 0 428.77 406.18">
  <defs>
    <style>
      .cls-1, .cls-2 {
        fill: #fff;
        stroke-width: 0px;
      }

      .cls-2 {
        fill-rule: evenodd;
      }
    </style>
  </defs>
  <polygon class="cls-2" points="81.25 112.39 36.69 147.16 81.25 181.93 82.18 182.66 203.22 277.12 324.25 182.66 325.19 181.93 369.74 147.16 325.19 112.39 324.25 111.66 308.66 99.49 253.82 142.62 271.71 156.59 237.4 184.3 157.25 121.75 191.56 94.04 209.97 108.4 264.81 65.27 203.22 17.2 82.18 111.66 81.25 112.39 81.25 112.39"/>
  <g>
    <path class="cls-1" d="m375.45,184.3v79.2s-9.62,7.64-9.62,7.64v-78.56s9.62-8.29,9.62-8.29m2.88-6.29l-15.39,13.26v85.85s15.39-12.22,15.39-12.22v-86.89h0Z"/>
    <polygon class="cls-1" points="347.56 288.91 362.94 277.12 362.94 245.52 347.56 258.78 347.56 288.91"/>
    <path class="cls-1" d="m344.68,233.74v53.77s-9.62,7.51-9.62,7.51v-52.99s9.62-8.29,9.62-8.29m2.88-6.29l-15.39,13.26v60.22s15.39-12.01,15.39-12.01v-61.47h0Z"/>
    <polygon class="cls-1" points="316.79 312.93 332.17 300.92 332.17 226.5 316.79 239.76 316.79 312.93"/>
    <path class="cls-1" d="m313.9,282.52v29s-9.62,7.51-9.62,7.51v-28.22s9.62-8.29,9.62-8.29m2.88-6.29l-15.39,13.26v35.45s15.39-12.01,15.39-12.01v-36.7h0Z"/>
    <polygon class="cls-1" points="286.02 337.07 301.4 324.94 301.4 273.24 286.02 286.5 286.02 337.07"/>
    <path class="cls-1" d="m283.13,280.3v55.35s-9.62,7.43-9.62,7.43v-54.49s9.62-8.29,9.62-8.29m2.88-6.29l-15.39,13.26v61.68s15.39-11.88,15.39-11.88v-63.06h0Z"/>
    <polygon class="cls-1" points="255.25 360.96 270.63 348.95 270.63 271.97 255.25 285.24 255.25 360.96"/>
    <path class="cls-1" d="m252.36,334.05v25.5s-9.62,7.51-9.62,7.51v-24.71s9.62-8.29,9.62-8.29m2.88-6.29l-15.39,13.26v31.94s15.39-12.01,15.39-12.01v-33.2h0Z"/>
    <polygon class="cls-1" points="224.47 384.97 239.86 372.96 239.86 286.08 224.47 298.09 224.47 384.97"/>
  </g>
  <path class="cls-2" d="m181.96,296.96S28.1,172.3,28.1,176.88c0,4.58,0,86.89,0,86.89l153.86,120.07v-86.89Z"/>
</svg>