<?xml version="1.0" encoding="UTF-8"?>
<svg id="Layer_1" data-name="Layer 1" xmlns="http://www.w3.org/2000/svg" viewBox="0 0 383 374">
  <defs>
    <style>
      .cls-1, .cls-2 {
        stroke-width: 0px;
      }

      .cls-2 {
        fill: #fff;
        fill-rule: evenodd;
      }
    </style>
  </defs>
  <path class="cls-1" d="m191.26,139.2c8.62,0,16.43,3.5,22.08,9.15,5.65,5.65,9.15,13.46,9.15,22.08s-3.5,16.43-9.15,22.08c-5.65,5.65-13.46,9.15-22.08,9.15s-16.43-3.5-22.08-9.15c-5.65-5.65-9.15-13.46-9.15-22.08s3.5-16.43,9.15-22.08c5.65-5.65,13.46-9.15,22.08-9.15Z"/>
  <path class="cls-2" d="m66.34,184.66l121.05-116.39c2.17-2.09,5.6-2.07,7.75.02h0s.03.03.03.03l119.78,116.35.04.04,3.91,3.5c1.23,1.1,1.85,2.62,1.85,4.15h.02v172.31c0,3.08-2.5,5.59-5.59,5.59h-85.78v-104.77c0-3.08-2.5-5.59-5.59-5.59h-65.13c-3.08,0-5.59,2.5-5.59,5.59v104.77h-85.78c-3.08,0-5.59-2.5-5.59-5.59v-173.24c0-1.73.79-3.27,2.02-4.3l2.57-2.48Z"/>
  <path class="cls-2" d="m191.26,39.76L25.78,196.9c-4.46,4.24-11.53,4.06-15.77-.4-4.24-4.46-4.07-11.54.4-15.78L183.57,16.28c4.31-4.09,11.07-4.09,15.37,0l173.16,164.44c4.47,4.24,4.64,11.32.4,15.78-4.24,4.46-11.31,4.63-15.77.4L191.26,39.76Z"/>
</svg>